<svg xmlns="http://www.w3.org/2000/svg" width="1440" height="900"><path d="M726,479L604,445L712,589Z" fill="#939393" stroke="#939393" stroke-width="1.51"/><path d="M604,445L575,641L712,589Z" fill="#929292" stroke="#929292" stroke-width="1.51"/><path d="M575,641L707,749L712,589Z" fill="#858585" stroke="#858585" stroke-width="1.51"/><path d="M346,607L504,704L575,641Z" fill="#949494" stroke="#949494" stroke-width="1.51"/><path d="M504,704L707,749L575,641Z" fill="#878787" stroke="#878787" stroke-width="1.51"/><path d="M712,589L929,514L726,479Z" fill="#898989" stroke="#898989" stroke-width="1.51"/><path d="M684,239L598,255L604,445Z" fill="#acacac" stroke="#acacac" stroke-width="1.51"/><path d="M604,445L346,607L575,641Z" fill="#9a9a9a" stroke="#9a9a9a" stroke-width="1.51"/><path d="M939,552L929,514L712,589Z" fill="#828282" stroke="#828282" stroke-width="1.51"/><path d="M726,479L684,239L604,445Z" fill="#a0a0a0" stroke="#a0a0a0" stroke-width="1.51"/><path d="M942,331L684,239L726,479Z" fill="#9c9c9c" stroke="#9c9c9c" stroke-width="1.51"/><path d="M874,798L939,552L712,589Z" fill="#7a7a7a" stroke="#7a7a7a" stroke-width="1.51"/><path d="M411,315L376,389L604,445Z" fill="#b0b0b0" stroke="#b0b0b0" stroke-width="1.51"/><path d="M376,389L346,607L604,445Z" fill="#a7a7a7" stroke="#a7a7a7" stroke-width="1.51"/><path d="M598,255L411,315L604,445Z" fill="#afafaf" stroke="#afafaf" stroke-width="1.51"/><path d="M929,514L942,331L726,479Z" fill="#8d8d8d" stroke="#8d8d8d" stroke-width="1.51"/><path d="M994,427L942,331L929,514Z" fill="#898989" stroke="#898989" stroke-width="1.51"/><path d="M707,749L874,798L712,589Z" fill="#797979" stroke="#797979" stroke-width="1.51"/><path d="M744,929L874,798L707,749Z" fill="#6d6d6d" stroke="#6d6d6d" stroke-width="1.51"/><path d="M939,552L994,427L929,514Z" fill="#818181" stroke="#818181" stroke-width="1.51"/><path d="M1064,595L994,427L939,552Z" fill="#7b7b7b" stroke="#7b7b7b" stroke-width="1.51"/><path d="M504,704L566,882L707,749Z" fill="#7f7f7f" stroke="#7f7f7f" stroke-width="1.51"/><path d="M353,758L566,882L504,704Z" fill="#878787" stroke="#878787" stroke-width="1.51"/><path d="M346,607L353,758L504,704Z" fill="#949494" stroke="#949494" stroke-width="1.51"/><path d="M922,129L709,110L684,239Z" fill="#aeaeae" stroke="#aeaeae" stroke-width="1.51"/><path d="M994,427L1011,341L942,331Z" fill="#8d8d8d" stroke="#8d8d8d" stroke-width="1.51"/><path d="M346,607L253,632L353,758Z" fill="#9b9b9b" stroke="#9b9b9b" stroke-width="1.51"/><path d="M192,390L253,632L346,607Z" fill="#ababab" stroke="#ababab" stroke-width="1.51"/><path d="M192,390L346,607L376,389Z" fill="#b1b1b1" stroke="#b1b1b1" stroke-width="1.51"/><path d="M566,882L744,929L707,749Z" fill="#707070" stroke="#707070" stroke-width="1.51"/><path d="M684,239L709,110L598,255Z" fill="#b3b3b3" stroke="#b3b3b3" stroke-width="1.51"/><path d="M598,255L369,125L411,315Z" fill="#c0c0c0" stroke="#c0c0c0" stroke-width="1.51"/><path d="M922,129L684,239L942,331Z" fill="#a3a3a3" stroke="#a3a3a3" stroke-width="1.51"/><path d="M874,798L1064,595L939,552Z" fill="#727272" stroke="#727272" stroke-width="1.51"/><path d="M994,427L1130,505L1011,341Z" fill="#838383" stroke="#838383" stroke-width="1.51"/><path d="M744,929L830,918L874,798Z" fill="#626262" stroke="#626262" stroke-width="1.51"/><path d="M874,798L1069,780L1064,595Z" fill="#686868" stroke="#686868" stroke-width="1.51"/><path d="M709,110L587,69L598,255Z" fill="#bababa" stroke="#bababa" stroke-width="1.51"/><path d="M214,263L192,390L376,389Z" fill="#bfbfbf" stroke="#bfbfbf" stroke-width="1.51"/><path d="M214,263L376,389L411,315Z" fill="#bebebe" stroke="#bebebe" stroke-width="1.51"/><path d="M353,758L309,876L566,882Z" fill="#838383" stroke="#838383" stroke-width="1.51"/><path d="M253,632L235,767L353,758Z" fill="#989898" stroke="#989898" stroke-width="1.51"/><path d="M149,644L235,767L253,632Z" fill="#9f9f9f" stroke="#9f9f9f" stroke-width="1.51"/><path d="M1011,341L922,129L942,331Z" fill="#999999" stroke="#999999" stroke-width="1.51"/><path d="M709,110L611,32L587,69Z" fill="#bfbfbf" stroke="#bfbfbf" stroke-width="1.51"/><path d="M1064,595L1130,505L994,427Z" fill="#797979" stroke="#797979" stroke-width="1.51"/><path d="M1160,153L1086,77L922,129Z" fill="#9d9d9d" stroke="#9d9d9d" stroke-width="1.51"/><path d="M1131,551L1130,505L1064,595Z" fill="#727272" stroke="#727272" stroke-width="1.51"/><path d="M1200,772L1131,551L1064,595Z" fill="#686868" stroke="#686868" stroke-width="1.51"/><path d="M830,918L978,880L874,798Z" fill="#606060" stroke="#606060" stroke-width="1.51"/><path d="M587,69L369,125L598,255Z" fill="#c2c2c2" stroke="#c2c2c2" stroke-width="1.51"/><path d="M235,767L309,876L353,758Z" fill="#8e8e8e" stroke="#8e8e8e" stroke-width="1.51"/><path d="M566,882L748,1057L744,929Z" fill="#616161" stroke="#616161" stroke-width="1.51"/><path d="M978,880L1069,780L874,798Z" fill="#616161" stroke="#616161" stroke-width="1.51"/><path d="M587,69L423,23L369,125Z" fill="#cccccc" stroke="#cccccc" stroke-width="1.51"/><path d="M659,-73L611,32L709,110Z" fill="#c0c0c0" stroke="#c0c0c0" stroke-width="1.51"/><path d="M369,125L214,263L411,315Z" fill="#c7c7c7" stroke="#c7c7c7" stroke-width="1.51"/><path d="M192,390L149,644L253,632Z" fill="#acacac" stroke="#acacac" stroke-width="1.51"/><path d="M249,1134L388,981L309,876Z" fill="#727272" stroke="#727272" stroke-width="1.51"/><path d="M309,876L388,981L566,882Z" fill="#787878" stroke="#787878" stroke-width="1.51"/><path d="M744,929L861,1026L830,918Z" fill="#585858" stroke="#585858" stroke-width="1.51"/><path d="M830,918L861,1026L978,880Z" fill="#555555" stroke="#555555" stroke-width="1.51"/><path d="M500,1090L748,1057L566,882Z" fill="#606060" stroke="#606060" stroke-width="1.51"/><path d="M748,1057L861,1026L744,929Z" fill="#545454" stroke="#545454" stroke-width="1.51"/><path d="M1247,939L1200,772L1069,780Z" fill="#535353" stroke="#535353" stroke-width="1.51"/><path d="M611,32L423,23L587,69Z" fill="#c8c8c8" stroke="#c8c8c8" stroke-width="1.51"/><path d="M369,125L193,180L214,263Z" fill="#cecece" stroke="#cecece" stroke-width="1.51"/><path d="M298,30L193,180L369,125Z" fill="#d3d3d3" stroke="#d3d3d3" stroke-width="1.51"/><path d="M214,263L79,389L192,390Z" fill="#c4c4c4" stroke="#c4c4c4" stroke-width="1.51"/><path d="M192,390L79,389L149,644Z" fill="#b7b7b7" stroke="#b7b7b7" stroke-width="1.51"/><path d="M388,981L500,1090L566,882Z" fill="#6b6b6b" stroke="#6b6b6b" stroke-width="1.51"/><path d="M41,276L79,389L214,263Z" fill="#cbcbcb" stroke="#cbcbcb" stroke-width="1.51"/><path d="M1130,505L1194,289L1011,341Z" fill="#838383" stroke="#838383" stroke-width="1.51"/><path d="M1358,491L1194,289L1130,505Z" fill="#767676" stroke="#767676" stroke-width="1.51"/><path d="M841,-85L659,-73L709,110Z" fill="#bdbdbd" stroke="#bdbdbd" stroke-width="1.51"/><path d="M611,32L659,-73L423,23Z" fill="#c9c9c9" stroke="#c9c9c9" stroke-width="1.51"/><path d="M841,-85L709,110L922,129Z" fill="#b2b2b2" stroke="#b2b2b2" stroke-width="1.51"/><path d="M1131,551L1343,579L1130,505Z" fill="#6c6c6c" stroke="#6c6c6c" stroke-width="1.51"/><path d="M1069,780L1200,772L1064,595Z" fill="#626262" stroke="#626262" stroke-width="1.51"/><path d="M1247,939L1069,780L978,880Z" fill="#525252" stroke="#525252" stroke-width="1.51"/><path d="M248,-156L298,30L423,23Z" fill="#dadada" stroke="#dadada" stroke-width="1.51"/><path d="M423,23L298,30L369,125Z" fill="#d2d2d2" stroke="#d2d2d2" stroke-width="1.51"/><path d="M97,860L309,876L235,767Z" fill="#8e8e8e" stroke="#8e8e8e" stroke-width="1.51"/><path d="M249,1134L368,1084L388,981Z" fill="#6a6a6a" stroke="#6a6a6a" stroke-width="1.51"/><path d="M388,981L368,1084L500,1090Z" fill="#686868" stroke="#686868" stroke-width="1.51"/><path d="M1160,153L922,129L1011,341Z" fill="#989898" stroke="#989898" stroke-width="1.51"/><path d="M1194,289L1160,153L1011,341Z" fill="#8e8e8e" stroke="#8e8e8e" stroke-width="1.51"/><path d="M149,644L62,780L235,767Z" fill="#9d9d9d" stroke="#9d9d9d" stroke-width="1.51"/><path d="M-115,593L62,780L149,644Z" fill="#a7a7a7" stroke="#a7a7a7" stroke-width="1.51"/><path d="M1062,-24L841,-85L922,129Z" fill="#acacac" stroke="#acacac" stroke-width="1.51"/><path d="M62,780L97,860L235,767Z" fill="#969696" stroke="#969696" stroke-width="1.51"/><path d="M79,389L-115,593L149,644Z" fill="#b5b5b5" stroke="#b5b5b5" stroke-width="1.51"/><path d="M193,180L41,276L214,263Z" fill="#d0d0d0" stroke="#d0d0d0" stroke-width="1.51"/><path d="M112,114L41,276L193,180Z" fill="#d5d5d5" stroke="#d5d5d5" stroke-width="1.51"/><path d="M298,30L112,114L193,180Z" fill="#d8d8d8" stroke="#d8d8d8" stroke-width="1.51"/><path d="M1164,1043L1247,939L978,880Z" fill="#454545" stroke="#454545" stroke-width="1.51"/><path d="M748,1057L746,1198L861,1026Z" fill="#4c4c4c" stroke="#4c4c4c" stroke-width="1.51"/><path d="M500,1090L746,1198L748,1057Z" fill="#515151" stroke="#515151" stroke-width="1.51"/><path d="M508,1289L746,1198L500,1090Z" fill="#525252" stroke="#525252" stroke-width="1.51"/><path d="M1086,77L1062,-24L922,129Z" fill="#a3a3a3" stroke="#a3a3a3" stroke-width="1.51"/><path d="M1175,-68L1062,-24L1086,77Z" fill="#a1a1a1" stroke="#a1a1a1" stroke-width="1.51"/><path d="M41,276L-10,312L79,389Z" fill="#cccccc" stroke="#cccccc" stroke-width="1.51"/><path d="M-70,162L-10,312L41,276Z" fill="#d6d6d6" stroke="#d6d6d6" stroke-width="1.51"/><path d="M841,-85L704,-168L659,-73Z" fill="#c2c2c2" stroke="#c2c2c2" stroke-width="1.51"/><path d="M659,-73L369,-219L423,23Z" fill="#d5d5d5" stroke="#d5d5d5" stroke-width="1.51"/><path d="M298,30L71,11L112,114Z" fill="#dddddd" stroke="#dddddd" stroke-width="1.51"/><path d="M891,-159L704,-168L841,-85Z" fill="#bdbdbd" stroke="#bdbdbd" stroke-width="1.51"/><path d="M1200,772L1343,579L1131,551Z" fill="#626262" stroke="#626262" stroke-width="1.51"/><path d="M1194,289L1374,156L1160,153Z" fill="#8a8a8a" stroke="#8a8a8a" stroke-width="1.51"/><path d="M1343,579L1358,491L1130,505Z" fill="#686868" stroke="#686868" stroke-width="1.51"/><path d="M1160,153L1175,-68L1086,77Z" fill="#9c9c9c" stroke="#9c9c9c" stroke-width="1.51"/><path d="M-10,312L-52,392L79,389Z" fill="#c9c9c9" stroke="#c9c9c9" stroke-width="1.51"/><path d="M1062,-24L891,-159L841,-85Z" fill="#b3b3b3" stroke="#b3b3b3" stroke-width="1.51"/><path d="M97,860L249,1134L309,876Z" fill="#7c7c7c" stroke="#7c7c7c" stroke-width="1.51"/><path d="M368,1084L366,1225L500,1090Z" fill="#606060" stroke="#606060" stroke-width="1.51"/><path d="M1164,1043L978,880L1045,1144Z" fill="#424242" stroke="#424242" stroke-width="1.51"/><path d="M1200,772L1384,746L1343,579Z" fill="#555555" stroke="#555555" stroke-width="1.51"/><path d="M1045,1144L978,880L861,1026Z" fill="#484848" stroke="#484848" stroke-width="1.51"/><path d="M939,1280L1045,1144L861,1026Z" fill="#3d3d3d" stroke="#3d3d3d" stroke-width="1.51"/><path d="M249,1134L366,1225L368,1084Z" fill="#626262" stroke="#626262" stroke-width="1.51"/><path d="M62,780L-45,960L97,860Z" fill="#919191" stroke="#919191" stroke-width="1.51"/><path d="M73,1259L286,1231L249,1134Z" fill="#666666" stroke="#666666" stroke-width="1.51"/><path d="M-52,392L-115,593L79,389Z" fill="#c0c0c0" stroke="#c0c0c0" stroke-width="1.51"/><path d="M891,-159L624,-243L704,-168Z" fill="#c5c5c5" stroke="#c5c5c5" stroke-width="1.51"/><path d="M704,-168L624,-243L659,-73Z" fill="#cacaca" stroke="#cacaca" stroke-width="1.51"/><path d="M1563,583L1528,430L1358,491Z" fill="#575757" stroke="#575757" stroke-width="1.51"/><path d="M1247,939L1384,746L1200,772Z" fill="#4c4c4c" stroke="#4c4c4c" stroke-width="1.51"/><path d="M112,114L-70,162L41,276Z" fill="#dadada" stroke="#dadada" stroke-width="1.51"/><path d="M-10,312L-269,312L-52,392Z" fill="#d0d0d0" stroke="#d0d0d0" stroke-width="1.51"/><path d="M248,-156L71,11L298,30Z" fill="#e1e1e1" stroke="#e1e1e1" stroke-width="1.51"/><path d="M366,1225L508,1289L500,1090Z" fill="#5a5a5a" stroke="#5a5a5a" stroke-width="1.51"/><path d="M746,1198L939,1280L861,1026Z" fill="#414141" stroke="#414141" stroke-width="1.51"/><path d="M1358,491L1399,326L1194,289Z" fill="#737373" stroke="#737373" stroke-width="1.51"/><path d="M1450,238L1399,326L1528,430Z" fill="#696969" stroke="#696969" stroke-width="1.51"/><path d="M369,-219L248,-156L423,23Z" fill="#dedede" stroke="#dedede" stroke-width="1.51"/><path d="M1062,-24L1023,-171L891,-159Z" fill="#b0b0b0" stroke="#b0b0b0" stroke-width="1.51"/><path d="M891,-159L1023,-171L624,-243Z" fill="#bdbdbd" stroke="#bdbdbd" stroke-width="1.51"/><path d="M1175,-68L1023,-171L1062,-24Z" fill="#a8a8a8" stroke="#a8a8a8" stroke-width="1.51"/><path d="M249,1134L286,1231L366,1225Z" fill="#626262" stroke="#626262" stroke-width="1.51"/><path d="M366,1225L286,1231L508,1289Z" fill="#5e5e5e" stroke="#5e5e5e" stroke-width="1.51"/><path d="M56,1135L249,1134L97,860Z" fill="#757575" stroke="#757575" stroke-width="1.51"/><path d="M1374,156L1175,-68L1160,153Z" fill="#949494" stroke="#949494" stroke-width="1.51"/><path d="M624,-243L369,-219L659,-73Z" fill="#d3d3d3" stroke="#d3d3d3" stroke-width="1.51"/><path d="M71,11L-70,162L112,114Z" fill="#e0e0e0" stroke="#e0e0e0" stroke-width="1.51"/><path d="M-254,471L-179,615L-115,593Z" fill="#bababa" stroke="#bababa" stroke-width="1.51"/><path d="M508,1289L939,1280L746,1198Z" fill="#484848" stroke="#484848" stroke-width="1.51"/><path d="M1227,1192L1339,977L1164,1043Z" fill="#323232" stroke="#323232" stroke-width="1.51"/><path d="M1399,326L1374,156L1194,289Z" fill="#7e7e7e" stroke="#7e7e7e" stroke-width="1.51"/><path d="M-134,779L-45,960L62,780Z" fill="#989898" stroke="#989898" stroke-width="1.51"/><path d="M-115,593L-134,779L62,780Z" fill="#a7a7a7" stroke="#a7a7a7" stroke-width="1.51"/><path d="M1247,939L1339,977L1384,746Z" fill="#3f3f3f" stroke="#3f3f3f" stroke-width="1.51"/><path d="M1164,1043L1339,977L1247,939Z" fill="#393939" stroke="#393939" stroke-width="1.51"/><path d="M1227,1192L1164,1043L1045,1144Z" fill="#333333" stroke="#333333" stroke-width="1.51"/><path d="M-115,593L-179,615L-134,779Z" fill="#afafaf" stroke="#afafaf" stroke-width="1.51"/><path d="M-254,471L-115,593L-52,392Z" fill="#c1c1c1" stroke="#c1c1c1" stroke-width="1.51"/><path d="M939,1280L1028,1272L1045,1144Z" fill="#383838" stroke="#383838" stroke-width="1.51"/><path d="M-45,960L56,1135L97,860Z" fill="#7f7f7f" stroke="#7f7f7f" stroke-width="1.51"/><path d="M1399,326L1450,238L1374,156Z" fill="#777777" stroke="#777777" stroke-width="1.51"/><path d="M1352,-79L1225,-126L1175,-68Z" fill="#9c9c9c" stroke="#9c9c9c" stroke-width="1.51"/><path d="M1528,430L1399,326L1358,491Z" fill="#646464" stroke="#646464" stroke-width="1.51"/><path d="M1352,-79L1175,-68L1374,156Z" fill="#919191" stroke="#919191" stroke-width="1.51"/><path d="M1175,-68L1225,-126L1023,-171Z" fill="#a5a5a5" stroke="#a5a5a5" stroke-width="1.51"/><path d="M1028,1272L1227,1192L1045,1144Z" fill="#323232" stroke="#323232" stroke-width="1.51"/><path d="M1563,583L1343,579L1384,746Z" fill="#4f4f4f" stroke="#4f4f4f" stroke-width="1.51"/><path d="M1563,583L1358,491L1343,579Z" fill="#585858" stroke="#585858" stroke-width="1.51"/><path d="M-269,312L-254,471L-52,392Z" fill="#cdcdcd" stroke="#cdcdcd" stroke-width="1.51"/><path d="M-287,774L-179,987L-134,779Z" fill="#9b9b9b" stroke="#9b9b9b" stroke-width="1.51"/><path d="M1610,649L1563,583L1384,746Z" fill="#464646" stroke="#464646" stroke-width="1.51"/><path d="M1471,952L1384,746L1339,977Z" fill="#383838" stroke="#383838" stroke-width="1.51"/><path d="M1227,1192L1407,1050L1339,977Z" fill="#2b2b2b" stroke="#2b2b2b" stroke-width="1.51"/><path d="M1407,1050L1471,952L1339,977Z" fill="#2b2b2b" stroke="#2b2b2b" stroke-width="1.51"/><path d="M1522,100L1374,156L1450,238Z" fill="#787878" stroke="#787878" stroke-width="1.51"/><path d="M1487,-54L1352,-79L1374,156Z" fill="#878787" stroke="#878787" stroke-width="1.51"/><path d="M-45,960L-63,1127L56,1135Z" fill="#787878" stroke="#787878" stroke-width="1.51"/><path d="M56,1135L73,1259L249,1134Z" fill="#696969" stroke="#696969" stroke-width="1.51"/><path d="M-188,1053L-63,1127L-45,960Z" fill="#7e7e7e" stroke="#7e7e7e" stroke-width="1.51"/><path d="M-179,987L-45,960L-134,779Z" fill="#909090" stroke="#909090" stroke-width="1.51"/><path d="M-44,1289L73,1259L56,1135Z" fill="#6d6d6d" stroke="#6d6d6d" stroke-width="1.51"/><path d="M286,1231L73,1259L508,1289Z" fill="#626262" stroke="#626262" stroke-width="1.51"/><path d="M-243,154L-70,162L-127,-77Z" fill="#e8e8e8" stroke="#e8e8e8" stroke-width="1.51"/><path d="M-243,154L-269,312L-70,162Z" fill="#dfdfdf" stroke="#dfdfdf" stroke-width="1.51"/><path d="M-70,162L-269,312L-10,312Z" fill="#d9d9d9" stroke="#d9d9d9" stroke-width="1.51"/><path d="M1471,952L1539,827L1384,746Z" fill="#393939" stroke="#393939" stroke-width="1.51"/><path d="M248,-156L53,-211L71,11Z" fill="#e9e9e9" stroke="#e9e9e9" stroke-width="1.51"/><path d="M369,-219L53,-211L248,-156Z" fill="#e8e8e8" stroke="#e8e8e8" stroke-width="1.51"/><path d="M-258,-248L53,-211L369,-219Z" fill="#f1f1f1" stroke="#f1f1f1" stroke-width="1.51"/><path d="M-287,774L-134,779L-179,615Z" fill="#aaaaaa" stroke="#aaaaaa" stroke-width="1.51"/><path d="M-127,-77L-70,162L71,11Z" fill="#e8e8e8" stroke="#e8e8e8" stroke-width="1.51"/><path d="M-269,312L-287,774L-254,471Z" fill="#c1c1c1" stroke="#c1c1c1" stroke-width="1.51"/><path d="M-254,471L-287,774L-179,615Z" fill="#b6b6b6" stroke="#b6b6b6" stroke-width="1.51"/><path d="M1619,745L1610,649L1384,746Z" fill="#404040" stroke="#404040" stroke-width="1.51"/><path d="M1696,456L1651,266L1528,430Z" fill="#585858" stroke="#585858" stroke-width="1.51"/><path d="M1637,159L1522,100L1450,238Z" fill="#717171" stroke="#717171" stroke-width="1.51"/><path d="M1651,266L1450,238L1528,430Z" fill="#646464" stroke="#646464" stroke-width="1.51"/><path d="M53,-211L-36,-168L71,11Z" fill="#eeeeee" stroke="#eeeeee" stroke-width="1.51"/><path d="M-36,-168L-127,-77L71,11Z" fill="#eeeeee" stroke="#eeeeee" stroke-width="1.51"/><path d="M-179,987L-188,1053L-45,960Z" fill="#838383" stroke="#838383" stroke-width="1.51"/><path d="M-63,1127L-44,1289L56,1135Z" fill="#6f6f6f" stroke="#6f6f6f" stroke-width="1.51"/><path d="M-287,774L-188,1053L-179,987Z" fill="#8e8e8e" stroke="#8e8e8e" stroke-width="1.51"/><path d="M1700,951L1539,827L1471,952Z" fill="#292929" stroke="#292929" stroke-width="1.51"/><path d="M1700,951L1619,745L1539,827Z" fill="#2e2e2e" stroke="#2e2e2e" stroke-width="1.51"/><path d="M1539,827L1619,745L1384,746Z" fill="#3c3c3c" stroke="#3c3c3c" stroke-width="1.51"/><path d="M1352,-79L1328,-209L1225,-126Z" fill="#989898" stroke="#989898" stroke-width="1.51"/><path d="M1225,-126L1328,-209L1023,-171Z" fill="#a3a3a3" stroke="#a3a3a3" stroke-width="1.51"/><path d="M1023,-171L1328,-209L624,-243Z" fill="#b3b3b3" stroke="#b3b3b3" stroke-width="1.51"/><path d="M1478,-216L1328,-209L1352,-79Z" fill="#919191" stroke="#919191" stroke-width="1.51"/><path d="M1407,1050L1484,1099L1471,952Z" fill="#242424" stroke="#242424" stroke-width="1.51"/><path d="M1227,1192L1353,1252L1407,1050Z" fill="#232323" stroke="#232323" stroke-width="1.51"/><path d="M1028,1272L1353,1252L1227,1192Z" fill="#2d2d2d" stroke="#2d2d2d" stroke-width="1.51"/><path d="M939,1280L1353,1252L1028,1272Z" fill="#323232" stroke="#323232" stroke-width="1.51"/><path d="M1353,1252L1484,1099L1407,1050Z" fill="#1f1f1f" stroke="#1f1f1f" stroke-width="1.51"/><path d="M1522,100L1487,-54L1374,156Z" fill="#7d7d7d" stroke="#7d7d7d" stroke-width="1.51"/><path d="M-262,1187L-44,1289L-63,1127Z" fill="#727272" stroke="#727272" stroke-width="1.51"/><path d="M73,1259L-44,1289L508,1289Z" fill="#676767" stroke="#676767" stroke-width="1.51"/><path d="M1522,100L1725,-62L1487,-54Z" fill="#787878" stroke="#787878" stroke-width="1.51"/><path d="M1696,456L1528,430L1563,583Z" fill="#505050" stroke="#505050" stroke-width="1.51"/><path d="M1696,456L1563,583L1610,649Z" fill="#484848" stroke="#484848" stroke-width="1.51"/><path d="M-258,-248L-226,-57L-127,-77Z" fill="#f6f6f6" stroke="#f6f6f6" stroke-width="1.51"/><path d="M-127,-77L-226,-57L-243,154Z" fill="#eeeeee" stroke="#eeeeee" stroke-width="1.51"/><path d="M-243,154L-258,-248L-269,312Z" fill="#ececec" stroke="#ececec" stroke-width="1.51"/><path d="M1619,745L1696,456L1610,649Z" fill="#424242" stroke="#424242" stroke-width="1.51"/><path d="M1725,-62L1637,159L1651,266Z" fill="#6a6a6a" stroke="#6a6a6a" stroke-width="1.51"/><path d="M1651,266L1637,159L1450,238Z" fill="#6a6a6a" stroke="#6a6a6a" stroke-width="1.51"/><path d="M1353,1252L1484,1245L1484,1099Z" fill="#1a1a1a" stroke="#1a1a1a" stroke-width="1.51"/><path d="M1661,1098L1700,951L1471,952Z" fill="#1c1c1c" stroke="#1c1c1c" stroke-width="1.51"/><path d="M939,1280L1484,1245L1353,1252Z" fill="#292929" stroke="#292929" stroke-width="1.51"/><path d="M1487,-54L1478,-216L1352,-79Z" fill="#8a8a8a" stroke="#8a8a8a" stroke-width="1.51"/><path d="M1328,-209L1478,-216L624,-243Z" fill="#aaaaaa" stroke="#aaaaaa" stroke-width="1.51"/><path d="M1723,-132L1478,-216L1487,-54Z" fill="#808080" stroke="#808080" stroke-width="1.51"/><path d="M-188,1053L-262,1187L-63,1127Z" fill="#787878" stroke="#787878" stroke-width="1.51"/><path d="M-287,774L-262,1187L-188,1053Z" fill="#868686" stroke="#868686" stroke-width="1.51"/><path d="M1619,745L1700,951L1696,456Z" fill="#373737" stroke="#373737" stroke-width="1.51"/><path d="M1661,1098L1471,952L1484,1099Z" fill="#1d1d1d" stroke="#1d1d1d" stroke-width="1.51"/><path d="M1671,1178L1661,1098L1484,1099Z" fill="#121212" stroke="#121212" stroke-width="1.51"/><path d="M-36,-168L-258,-248L-127,-77Z" fill="#f6f6f6" stroke="#f6f6f6" stroke-width="1.51"/><path d="M-226,-57L-258,-248L-243,154Z" fill="#f3f3f3" stroke="#f3f3f3" stroke-width="1.51"/><path d="M-269,312L-258,-248L-287,774Z" fill="#dcdcdc" stroke="#dcdcdc" stroke-width="1.51"/><path d="M53,-211L-258,-248L-36,-168Z" fill="#f6f6f6" stroke="#f6f6f6" stroke-width="1.51"/><path d="M624,-243L-258,-248L369,-219Z" fill="#e9e9e9" stroke="#e9e9e9" stroke-width="1.51"/><path d="M1484,1245L1671,1178L1484,1099Z" fill="#131313" stroke="#131313" stroke-width="1.51"/><path d="M1661,1098L1671,1178L1700,951Z" fill="#121212" stroke="#121212" stroke-width="1.51"/><path d="M1700,951L1725,-62L1696,456Z" fill="#4c4c4c" stroke="#4c4c4c" stroke-width="1.51"/><path d="M1696,456L1725,-62L1651,266Z" fill="#626262" stroke="#626262" stroke-width="1.51"/><path d="M1637,159L1725,-62L1522,100Z" fill="#717171" stroke="#717171" stroke-width="1.51"/><path d="M1725,-62L1723,-132L1487,-54Z" fill="#787878" stroke="#787878" stroke-width="1.51"/></svg>